# xmcd CD database file
#
# Track frame offsets:
#	150
#	15720
#	28187
#	48926
#	67135
#	83179
#	98460
#	118272
#	135368
#	150130
#	162194
#	177646
#	196076
#	210851
#	226503
#	245046
#	262477
#	273105
#	287919
#	305610
#
# Disc length: 4328 seconds
#
# Revision: 0
# Processed by: cddbd v1.4PL0 Copyright (c) Steve Scherf et al.
# Submitted via: CDex 1.50
#
DISCID=0f10e614
DTITLE=Various Artist - Gone Country 5
DYEAR=1900
DGENRE=Country
TTITLE0=TONIGHT THE HEARTACHES ON ME-DIXIE CHICKS
TTITLE1=RUNAWAY-GARY ALLAN
TTITLE2=RIGHT IN TIME-LUCINDA WILLIAMS
TTITLE3=LET'S MAKE SURE WE KISS GOODBYE-VINCE GILL
TTITLE4=SQUEEZIN THE LOVE OUTA YOU-REDMON AND VALE
TTITLE5=CHANGE-SONS OF THE DESERT
TTITLE6=MORE THAN I CAN SAY-SAMMY KERSHAW
TTITLE7=SEND DOWN AND ANGEL-ALLISON MOORER
TTITLE8=YOU GO FIRST (DO YOU WANNA KISS)-JESSICA ANDREWS
TTITLE9=I'M DIGGIN IT-ALECIA ELLIOT
TTITLE10=HOW DO YOU LIKE ME NOW-TOBY KEITH
TTITLE11=BACK AT ONE-MARK WILLS
TTITLE12=WHEN MY DREAMS COME TRUE-REBECCA LYNN HOWARD
TTITLE13=I'M YOURS-LINDA DAVIS
TTITLE14=I DON'T WANT TO MISS A THING-MARK CHESTNUTT
TTITLE15=HARMLESS-MULBERRY LANE
TTITLE16=CRAZY LITTLE THING CALLED LOVE-Dwight Yokham
TTITLE17=If I Could Change The World - Someone Crap
TTITLE18=UNSUNG HERO-TERRI CLARK
TTITLE19=I WEAR YOUR LOVE-LISA ANGELLE
EXTD=
EXTT0=
EXTT1=
EXTT2=
EXTT3=
EXTT4=
EXTT5=
EXTT6=
EXTT7=
EXTT8=
EXTT9=
EXTT10=
EXTT11=
EXTT12=
EXTT13=
EXTT14=
EXTT15=
EXTT16=
EXTT17=
EXTT18=
EXTT19=
PLAYORDER=
